<svg xmlns:rdf="http://www.w3.org/1999/02/22-rdf-syntax-ns#" xmlns="http://www.w3.org/2000/svg" height="20" width="560" version="1.1" xmlns:cc="http://creativecommons.org/ns#" xmlns:dc="http://purl.org/dc/elements/1.1/" viewBox="0 0 560 20">
<g fill="#ffffff">
<svg width="20" version="1.1" y="0" x="0" height="20" viewBox="0 0 20 20">
<path fill="#fff" d="m18.125 0h-16.25c-1.031 0-1.875 0.844-1.875 1.875v16.25c0 1.031 0.844 1.875 1.875 1.875h8.125v-8.75h-2.5v-2.5h2.5v-1.25c0-2.066 1.684-3.75 3.75-3.75h2.5v2.5h-2.5c-0.688 0-1.25 0.563-1.25 1.25v1.25h3.75l-0.625 2.5h-3.125v8.75h5.625c1.031 0 1.875-0.844 1.875-1.875v-16.25c0-1.031-0.844-1.875-1.875-1.875z"/>
</svg>
<svg width="20" version="1.1" y="0" x="36" height="20" viewBox="0 0 20 20">
<path fill="#fff" d="m10 0c-5.523 0-10 4.477-10 10s4.477 10 10 10 10-4.477 10-10-4.477-10-10-10zm-2.5 15c-2.766 0-5-2.234-5-5s2.234-5 5-5c1.352 0 2.48 0.492 3.352 1.309l-1.359 1.305c-0.371-0.355-1.02-0.77-1.992-0.77-1.707 0-3.102 1.414-3.102 3.156s1.395 3.156 3.102 3.156c1.98 0 2.723-1.422 2.836-2.156h-2.836v-1.715h4.723c0.043 0.25 0.078 0.5 0.078 0.828 0 2.859-1.914 4.887-4.801 4.887zm8.75-5v1.25h-1.25v-1.25h-1.25v-1.25h1.25v-1.25h1.25v1.25h1.25v1.25h-1.25z"/>
</svg>
<svg width="20" version="1.1" y="0" x="72" height="20" viewBox="0 0 20 20">
<path fill="#fff" d="m10 0.247c-5.522 0-10 4.477-10 10 0 4.418 2.865 8.167 6.839 9.489 0.5 0.093 0.683-0.217 0.683-0.481 0-0.238-0.009-1.026-0.014-1.862-2.782 0.605-3.369-1.18-3.369-1.18-0.455-1.156-1.11-1.463-1.11-1.463-0.907-0.621 0.069-0.608 0.069-0.608 1.004 0.071 1.533 1.031 1.533 1.031 0.892 1.529 2.339 1.087 2.91 0.831 0.09-0.646 0.349-1.087 0.635-1.337-2.221-0.253-4.556-1.11-4.556-4.942 0-1.092 0.391-1.984 1.03-2.684-0.104-0.252-0.446-1.269 0.097-2.646 0 0 0.84-0.269 2.751 1.025 0.798-0.222 1.653-0.333 2.503-0.337 0.85 0.004 1.706 0.115 2.505 0.337 1.909-1.294 2.747-1.025 2.747-1.025 0.544 1.378 0.202 2.395 0.098 2.646 0.641 0.7 1.029 1.592 1.029 2.684 0 3.841-2.339 4.687-4.566 4.934 0.359 0.31 0.678 0.919 0.678 1.852 0 1.338-0.012 2.415-0.012 2.744 0 0.266 0.18 0.578 0.687 0.48 3.971-1.324 6.833-5.071 6.833-9.488 0-5.523-4.477-10-10-10z"/>
</svg>
<svg width="20" version="1.1" y="0" x="108" height="20" viewBox="0 0 20 20">
<path fill="#fff" d="m20 4.422c-0.734 0.328-1.527 0.547-2.355 0.645 0.848-0.508 1.496-1.313 1.805-2.27-0.793 0.469-1.672 0.812-2.605 0.996-0.75-0.797-1.816-1.293-2.996-1.293-2.266 0-4.102 1.836-4.102 4.102 0 0.32 0.035 0.633 0.105 0.934-3.41-0.172-6.434-1.805-8.457-4.289-0.352 0.605-0.555 1.313-0.555 2.062 0 1.422 0.723 2.68 1.824 3.414-0.672-0.02-1.305-0.207-1.859-0.512v0.051c0 1.988 1.414 3.648 3.293 4.023-0.344 0.094-0.707 0.145-1.082 0.145-0.266 0-0.52-0.027-0.773-0.074 0.523 1.629 2.039 2.816 3.832 2.852-1.406 1.102-3.172 1.758-5.098 1.758-0.332 0-0.656-0.02-0.98-0.059 1.82 1.168 3.977 1.844 6.293 1.844 7.547 0 11.676-6.254 11.676-11.676 0-0.18-0.004-0.355-0.012-0.531 0.801-0.574 1.496-1.297 2.047-2.121z"/>
</svg>
</g>
</svg>
