<?xml version="1.0" encoding="UTF-8" standalone="no"?>
<!-- Generated by IcoMoon.io -->

<svg
   xmlns:dc="http://purl.org/dc/elements/1.1/"
   xmlns:cc="http://creativecommons.org/ns#"
   xmlns:rdf="http://www.w3.org/1999/02/22-rdf-syntax-ns#"
   xmlns:svg="http://www.w3.org/2000/svg"
   xmlns="http://www.w3.org/2000/svg"
   xmlns:sodipodi="http://sodipodi.sourceforge.net/DTD/sodipodi-0.dtd"
   xmlns:inkscape="http://www.inkscape.org/namespaces/inkscape"
   version="1.1"
   width="560"
   height="20"
   viewBox="0 0 560 20"
   id="svg2"
   inkscape:version="0.91 r13725"
   sodipodi:docname="sprite-color.svg"
   inkscape:export-filename="C:\Users\Puranjay\Documents\md-date-time-picker-pages\images\icomoon_4_icons\sprite\sprite.png"
   inkscape:export-xdpi="90"
   inkscape:export-ydpi="90">
  <metadata
     id="metadata20">
    <rdf:RDF>
      <cc:Work
         rdf:about="">
        <dc:format>image/svg+xml</dc:format>
        <dc:type
           rdf:resource="http://purl.org/dc/dcmitype/StillImage" />
        <dc:title />
      </cc:Work>
    </rdf:RDF>
  </metadata>
  <defs
     id="defs18" />
  <sodipodi:namedview
     pagecolor="#ffffff"
     bordercolor="#666666"
     borderopacity="1"
     objecttolerance="10"
     gridtolerance="10"
     guidetolerance="10"
     inkscape:pageopacity="0"
     inkscape:pageshadow="2"
     inkscape:window-width="1366"
     inkscape:window-height="705"
     id="namedview16"
     showgrid="false"
     inkscape:zoom="4.1142857"
     inkscape:cx="12.885235"
     inkscape:cy="9.5242182"
     inkscape:window-x="-8"
     inkscape:window-y="-8"
     inkscape:window-maximized="1"
     inkscape:current-layer="svg2"
     showguides="false" />
  <svg
     id="icon-twitter"
     width="20"
     height="20"
     viewBox="0 0 20 20"
     x="108"
     y="0"
     version="1.1"
     style="fill:#1da1f2;fill-opacity:1">
    <path
       d="M20 4.422c-0.734 0.328-1.527 0.547-2.355 0.645 0.848-0.508 1.496-1.313 1.805-2.27-0.793 0.469-1.672 0.812-2.605 0.996-0.75-0.797-1.816-1.293-2.996-1.293-2.266 0-4.102 1.836-4.102 4.102 0 0.32 0.035 0.633 0.105 0.934-3.41-0.172-6.434-1.805-8.457-4.289-0.352 0.605-0.555 1.313-0.555 2.062 0 1.422 0.723 2.68 1.824 3.414-0.672-0.020-1.305-0.207-1.859-0.512 0 0.016 0 0.035 0 0.051 0 1.988 1.414 3.648 3.293 4.023-0.344 0.094-0.707 0.145-1.082 0.145-0.266 0-0.52-0.027-0.773-0.074 0.523 1.629 2.039 2.816 3.832 2.852-1.406 1.102-3.172 1.758-5.098 1.758-0.332 0-0.656-0.020-0.98-0.059 1.82 1.168 3.977 1.844 6.293 1.844 7.547 0 11.676-6.254 11.676-11.676 0-0.18-0.004-0.355-0.012-0.531 0.801-0.574 1.496-1.297 2.047-2.121z"
       id="path14"
       style="fill:#1da1f2;fill-opacity:1" />
  </svg>
  <rect
     style="fill:#ffffff;fill-opacity:1;stroke:none;stroke-width:1;stroke-linejoin:round;stroke-miterlimit:4;stroke-dasharray:none;stroke-opacity:1"
     id="rect4140"
     width="13.749299"
     height="17.874088"
     x="3.7810571"
     y="2.1259117"
     ry="1.2745098" />
  <path
     style="fill:#3e5c9a;fill-opacity:1"
     id="path5"
     d="M 18.125,0 1.875,0 C 0.844,0 0,0.844 0,1.875 l 0,16.25 C 0,19.156 0.844,20 1.875,20 l 8.125,0 0,-8.75 -2.5,0 0,-2.5 2.5,0 0,-1.25 c 0,-2.066 1.684,-3.75 3.75,-3.75 l 2.5,0 0,2.5 -2.5,0 c -0.688,0 -1.25,0.563 -1.25,1.25 l 0,1.25 3.75,0 -0.625,2.5 -3.125,0 0,8.75 5.625,0 C 19.156,20 20,19.156 20,18.125 L 20,1.875 C 20,0.844 19.156,0 18.125,0 Z"
     inkscape:connector-curvature="0" />
  <circle
     style="fill:#ffffff;fill-opacity:1;stroke:none;stroke-width:1;stroke-linejoin:round;stroke-miterlimit:4;stroke-dasharray:none;stroke-opacity:1"
     id="path4145"
     cx="46"
     cy="10"
     r="9" />
  <ellipse
     style="fill:#ffffff;fill-opacity:1;stroke:none;stroke-width:1;stroke-linejoin:round;stroke-miterlimit:4;stroke-dasharray:none;stroke-opacity:1"
     id="path4145-9"
     cx="82"
     cy="10.971866"
     rx="9"
     ry="9.1718655" />
  <path
     inkscape:connector-curvature="0"
     style="fill:#dd4b39;fill-opacity:1"
     id="path8"
     d="M 46,0 C 40.477,0 36,4.477 36,10 36,15.523 40.477,20 46,20 51.523,20 56,15.523 56,10 56,4.477 51.523,0 46,0 Z m -2.5,15 c -2.766,0 -5,-2.234 -5,-5 0,-2.766 2.234,-5 5,-5 1.352,0 2.48,0.492 3.352,1.309 l -1.359,1.305 c -0.371,-0.355 -1.02,-0.77 -1.992,-0.77 -1.707,0 -3.102,1.414 -3.102,3.156 0,1.742 1.395,3.156 3.102,3.156 1.98,0 2.723,-1.422 2.836,-2.156 l -2.836,0 0,-1.715 4.723,0 c 0.043,0.25 0.078,0.5 0.078,0.828 0,2.859 -1.914,4.887 -4.801,4.887 z m 8.75,-5 0,1.25 -1.25,0 0,-1.25 -1.25,0 0,-1.25 1.25,0 0,-1.25 1.25,0 0,1.25 1.25,0 0,1.25 -1.25,0 z" />
  <svg
     inkscape:version="0.91 r13725"
     transform="translate(0,-0.247)"
     id="icon-github"
     width="20"
     height="20"
     viewBox="0 0 20 20"
     x="72"
     y="0"
     version="1.1"
     style="fill:#000000;fill-opacity:1">
    <path
       inkscape:connector-curvature="0"
       d="m 10,0.247 c -5.522,0 -10,4.477 -10,10 0,4.418 2.865,8.167 6.839,9.489 0.5,0.093 0.683,-0.217 0.683,-0.481 0,-0.238 -0.009,-1.026 -0.014,-1.862 -2.782,0.605 -3.369,-1.18 -3.369,-1.18 -0.455,-1.156 -1.11,-1.463 -1.11,-1.463 -0.907,-0.621 0.069,-0.608 0.069,-0.608 1.004,0.071 1.533,1.031 1.533,1.031 0.892,1.529 2.339,1.087 2.91,0.831 C 7.631,15.358 7.89,14.917 8.176,14.667 5.955,14.414 3.62,13.557 3.62,9.725 3.62,8.633 4.011,7.741 4.65,7.041 4.546,6.789 4.204,5.772 4.747,4.395 c 0,0 0.84,-0.269 2.751,1.025 0.798,-0.222 1.653,-0.333 2.503,-0.337 0.85,0.004 1.706,0.115 2.505,0.337 1.909,-1.294 2.747,-1.025 2.747,-1.025 0.544,1.378 0.202,2.395 0.098,2.646 0.641,0.7 1.029,1.592 1.029,2.684 0,3.841 -2.339,4.687 -4.566,4.934 0.359,0.31 0.678,0.919 0.678,1.852 0,1.338 -0.012,2.415 -0.012,2.744 0,0.266 0.18,0.578 0.687,0.48 C 17.138,18.411 20,14.664 20,10.247 c 0,-5.523 -4.477,-10 -10,-10 z"
       id="path11"
       style="fill:#000000;fill-opacity:1" />
  </svg>
</svg>
