<svg xmlns:rdf="http://www.w3.org/1999/02/22-rdf-syntax-ns#" xmlns="http://www.w3.org/2000/svg" height="20" width="560" xmlns:cc="http://creativecommons.org/ns#" xmlns:dc="http://purl.org/dc/elements/1.1/" viewBox="0 0 560 20"><svg width="20" x="108" height="20" viewBox="0 0 20 20" fill="#1da1f2"><path d="M20 4.422a8.103 8.103 0 0 1-2.355.645 4.13 4.13 0 0 0 1.805-2.27 8.258 8.258 0 0 1-2.605.996A4.102 4.102 0 0 0 13.85 2.5a4.1 4.1 0 0 0-4.103 4.102c0 .32.035.633.105.934a11.647 11.647 0 0 1-8.457-4.29A4.098 4.098 0 0 0 .84 5.31c0 1.42.723 2.68 1.824 3.413a4.105 4.105 0 0 1-1.86-.512v.052A4.103 4.103 0 0 0 4.1 12.285a4.1 4.1 0 0 1-1.855.07 4.117 4.117 0 0 0 3.832 2.853 8.227 8.227 0 0 1-6.078 1.7A11.606 11.606 0 0 0 6.29 18.75c7.547 0 11.676-6.253 11.676-11.675 0-.18-.004-.355-.012-.53A8.26 8.26 0 0 0 20 4.422z"/></svg><rect ry="1.274" height="17.874" width="13.749" y="2.126" x="3.781" fill="#fff"/><path fill="#3e5c9a" d="M18.125 0H1.875A1.88 1.88 0 0 0 0 1.875v16.25A1.88 1.88 0 0 0 1.875 20H10v-8.75H7.5v-2.5H10V7.5a3.757 3.757 0 0 1 3.75-3.75h2.5v2.5h-2.5c-.688 0-1.25.563-1.25 1.25v1.25h3.75l-.625 2.5H12.5V20h5.625A1.88 1.88 0 0 0 20 18.125V1.875A1.88 1.88 0 0 0 18.125 0z"/><circle cx="46" cy="10" r="9" fill="#fff"/><ellipse rx="9" ry="9.172" cy="10.972" cx="82" fill="#fff"/><path d="M46 0c-5.523 0-10 4.477-10 10s4.477 10 10 10 10-4.477 10-10S51.523 0 46 0zm-2.5 15c-2.766 0-5-2.234-5-5s2.234-5 5-5c1.352 0 2.48.492 3.352 1.31l-1.36 1.304c-.37-.355-1.02-.77-1.99-.77-1.708 0-3.103 1.414-3.103 3.156s1.394 3.156 3.1 3.156c1.98 0 2.724-1.422 2.837-2.156H43.5V9.285h4.724c.043.25.078.5.078.828 0 2.86-1.914 4.887-4.8 4.887zm8.75-5v1.25H51V10h-1.25V8.75H51V7.5h1.25v1.25h1.25V10h-1.25z" fill="#dd4b39"/><svg height="20" width="20" x="72" viewBox="0 0 20 20"><path d="M10 .247c-5.522 0-10 4.477-10 10 0 4.418 2.865 8.167 6.84 9.49.5.092.682-.218.682-.482 0-.238-.01-1.026-.014-1.862-2.782.605-3.37-1.18-3.37-1.18-.454-1.156-1.11-1.463-1.11-1.463-.906-.62.07-.608.07-.608 1.004.07 1.533 1.03 1.533 1.03.893 1.53 2.34 1.088 2.91.832.09-.646.35-1.087.636-1.337-2.22-.253-4.556-1.11-4.556-4.942 0-1.092.39-1.984 1.03-2.684-.104-.25-.446-1.268.097-2.645 0 0 .84-.27 2.75 1.025a9.576 9.576 0 0 1 2.504-.337c.85.004 1.707.115 2.506.337 1.91-1.294 2.747-1.025 2.747-1.025.544 1.378.202 2.395.098 2.646.642.7 1.03 1.593 1.03 2.685 0 3.84-2.34 4.687-4.566 4.934.36.31.678.918.678 1.85 0 1.34-.012 2.416-.012 2.745 0 .266.18.578.687.48A10.002 10.002 0 0 0 20 10.247c0-5.523-4.477-10-10-10z"/></svg></svg>